<svg xmlns="http://www.w3.org/2000/svg" fill="none" viewBox="0 0 128 128" height="128" width="128">
<path stroke-linejoin="round" stroke-linecap="round" stroke-width="3.00681" stroke="#0E152A" d="M54.3775 58.5618C60.5121 58.6052 63.2201 49.4921 58.6038 45.9387C48.8173 38.2373 42.2773 57.646 54.2851 58.5618"></path>
<path stroke-linejoin="round" stroke-linecap="round" stroke-width="3.00681" stroke="#0E152A" d="M66.7799 45.1866C63.0714 36.7164 52.3051 32.5251 45.478 39.5562C36.2863 49.5469 42.9648 66.4592 50.1457 75.7633"></path>
<path stroke-linejoin="round" stroke-linecap="round" stroke-width="3.00681" stroke="#0E152A" d="M57.7935 83.6934C69.1342 92.9264 88.4615 90.8063 86.9124 71.9479C84.7272 63.5105 76.4587 62.4151 71.4578 56.7466"></path>
<path stroke-linejoin="round" stroke-linecap="round" stroke-width="3.00681" stroke="#0E152A" d="M71.4577 42.7502C70.1907 43.0335 66.59 44.7067 66.7028 46.1404C67.6518 49.9337 68.9288 53.8034 71.4577 56.7523"></path>
<path stroke-linejoin="round" stroke-linecap="round" stroke-width="3.00681" stroke="#0E152A" d="M86.9585 60.7256C85.9737 61.2432 84.5477 62.7638 84.5835 63.9738"></path>
<path stroke-linejoin="round" stroke-linecap="round" stroke-width="3.00681" stroke="#0E152A" d="M73.2837 89.9342C72.9657 91.0513 73.0273 93.1988 73.8788 94"></path>
<path stroke-linejoin="round" stroke-linecap="round" stroke-width="3.00681" stroke="#0E152A" d="M62.7584 87.7922C61.7633 88.2828 60.3015 89.7654 60.3119 90.9807"></path>
<path stroke-linejoin="round" stroke-linecap="round" stroke-width="3.00681" stroke="#0E152A" d="M76.2792 53.4981C75.2944 54.0161 73.8685 55.5367 73.9043 56.7466"></path>
<path stroke-linejoin="round" stroke-linecap="round" stroke-width="3.00681" stroke="#0E152A" d="M44.2984 69.9532C43.3136 70.4708 41.8876 71.9914 41.9235 73.1961"></path>
<path stroke-linejoin="round" stroke-linecap="round" stroke-width="3" stroke="#0E152A" d="M98.5832 29L29 98.4384"></path>
<path stroke-linejoin="round" stroke-linecap="round" stroke-width="3" stroke="#0E152A" d="M105.271 35.4934C110.901 43.5795 114.203 53.4065 114.203 63.9973C114.203 91.6125 91.7709 114 64.099 114C36.4271 114 14 91.6125 14 63.9973C14 36.3821 36.4271 14 64.099 14C74.7138 14 84.5522 17.2894 92.6563 22.907"></path>
</svg>